<svg width="1200" height="1600" viewBox="0 0 1200 1600" fill="none" xmlns="http://www.w3.org/2000/svg">
  <g stroke="#5B65B4" stroke-opacity="0.2" stroke-width="2.2" stroke-linecap="round" stroke-linejoin="round">
    <path d="M44 108C128 64 196 62 286 96C362 126 426 128 502 98C590 64 664 64 746 100C822 134 892 136 972 104C1052 72 1128 76 1186 114"/>
    <path d="M26 170C114 124 186 122 272 156C354 188 422 192 504 162C592 130 666 130 746 166C824 200 896 202 980 170C1064 138 1136 142 1190 178"/>
    <path d="M8 234C98 186 176 182 264 218C352 254 426 258 512 228C596 198 668 198 746 234C826 270 902 274 988 242C1076 210 1144 214 1192 250"/>
    <path d="M4 312C96 256 176 252 266 294C352 334 428 336 514 304C596 274 670 274 748 308C830 344 906 346 994 314C1080 282 1146 288 1194 328"/>
    <path d="M12 388C108 322 188 318 278 364C364 408 438 412 522 382C604 352 678 352 754 388C836 426 914 430 1002 396C1088 364 1150 370 1196 412"/>
    <path d="M18 470C112 404 194 400 284 446C370 490 446 494 532 462C614 430 686 430 764 466C846 502 922 506 1010 474C1094 444 1152 452 1198 496"/>
    <path d="M18 556C108 494 188 488 280 536C368 582 446 586 538 552C620 522 692 524 770 560C852 598 928 604 1016 574C1098 544 1158 552 1200 596"/>
    <path d="M10 640C98 580 180 574 272 622C360 666 440 670 530 636C616 604 690 606 768 640C852 678 932 682 1018 652C1098 624 1160 632 1200 676"/>
    <path d="M0 724C92 668 174 662 268 706C356 748 438 754 530 724C618 694 692 694 770 728C854 766 936 772 1024 744C1106 716 1164 726 1200 770"/>
    <path d="M0 816C90 762 172 756 266 798C356 840 438 846 534 816C620 788 694 790 772 822C856 860 940 866 1028 838C1110 812 1168 824 1200 866"/>
    <path d="M0 910C88 860 170 854 264 896C354 938 438 944 536 912C620 886 696 886 774 918C858 954 944 960 1032 932C1114 906 1170 918 1200 958"/>
    <path d="M0 1008C86 958 168 952 262 994C352 1038 438 1044 536 1012C624 984 700 986 778 1018C862 1052 946 1058 1036 1032C1118 1008 1172 1020 1200 1060"/>
    <path d="M0 1108C84 1060 164 1052 258 1096C350 1140 438 1148 538 1118C626 1090 702 1092 782 1124C866 1158 950 1164 1040 1142C1124 1120 1176 1134 1200 1174"/>
    <path d="M0 1214C82 1168 162 1162 258 1202C350 1242 438 1250 538 1222C628 1196 706 1198 786 1230C870 1262 956 1270 1046 1250C1128 1230 1180 1244 1200 1280"/>
    <path d="M0 1324C80 1280 160 1272 258 1310C352 1348 442 1356 544 1328C634 1302 710 1306 792 1338C876 1370 964 1380 1054 1362C1136 1344 1184 1360 1200 1392"/>
    <path d="M0 1438C78 1394 158 1388 258 1424C354 1460 446 1470 548 1444C638 1422 716 1424 798 1454C884 1484 974 1496 1062 1480C1140 1464 1188 1478 1200 1508"/>
    <path d="M84 772C134 732 198 734 248 776C294 816 294 874 252 914C206 958 142 960 94 922C44 882 42 818 84 772Z"/>
    <path d="M124 786C164 756 214 758 248 790C280 820 280 868 252 898C218 930 168 932 132 904C96 874 92 820 124 786Z"/>
    <path d="M706 954C748 922 806 924 844 956C882 988 886 1042 852 1078C814 1118 754 1120 714 1088C674 1054 670 992 706 954Z"/>
    <path d="M736 968C770 944 814 946 840 972C868 1000 870 1040 846 1068C818 1098 774 1100 742 1076C710 1050 706 1000 736 968Z"/>
    <path d="M884 258C924 226 978 226 1014 256C1052 286 1058 342 1024 380C988 420 932 424 892 392C852 360 848 296 884 258Z"/>
    <path d="M910 272C942 248 982 248 1010 274C1040 302 1044 338 1018 366C990 396 950 398 920 376C890 350 884 302 910 272Z"/>
  </g>
</svg>
